<?xml version="1.0" encoding="utf-8" ?><svg xmlns="http://www.w3.org/2000/svg" xmlns:xlink="http://www.w3.org/1999/xlink" width="1024" height="1024" viewBox="0 0 1024 1024"><path fill="white" d="M0 0L1024 0L1024 1024L0 1024L0 0Z"/><path fill="#8B4513" d="M418.494 36.6545C420.855 36.5698 422.863 36.6972 424.079 39.1514C429.358 49.798 434.666 60.4337 440.018 71.0445L479.283 149.737L571.633 334.018C587.859 366.465 604.107 400.951 620.881 432.835C612.147 431.89 601.941 430.124 593.093 428.855L515.877 417.073L327.735 389.079C281.984 382.984 235.374 375.64 189.668 368.909L125.186 359.171C111.066 356.965 95.5843 354.665 81.64 351.751C97.3015 296.015 115.36 251.736 149.232 204.383C216.251 110.689 306.048 56.9181 418.494 36.6545Z"/><path fill="#D4AF37" d="M266.474 185.936C282.296 196.843 297.657 208.739 313.771 219.289C318.099 222.123 323.734 225.556 327.549 228.92C320.245 231.976 313.611 235.424 308.4 241.551C293.006 259.65 295.644 277.089 297.409 298.99C298.642 314.286 296.022 329.766 287.524 342.85C285.212 346.41 280.637 350.037 277.744 353.341L277.44 353.693C291.08 346.829 297.288 335.736 301.753 321.546C308.861 298.957 296.109 275.672 307.73 254.095C313.624 243.15 320.651 236.418 332.448 232.439C401.976 280.122 470.615 329.983 540.173 377.43C554.241 387.245 570.761 398.371 585.057 407.79C563.658 403.277 536.608 399.917 514.591 396.468L379.996 375.834C366.465 373.829 353.057 371.403 339.557 369.274L240.044 354.18C216.049 350.392 192.014 346.861 167.943 343.589C181.716 291.733 223.81 219.442 266.474 185.936Z"/><path fill="#642505" d="M239.684 269.527C260.065 266.904 278.695 281.351 281.228 301.744C283.76 322.137 269.23 340.703 248.826 343.145C228.55 345.571 210.126 331.152 207.609 310.887C205.093 290.622 219.43 272.134 239.684 269.527Z"/><path fill="#8B4513" d="M240.56 273.571C258.444 271.441 274.696 284.142 276.951 302.01C279.206 319.879 266.62 336.219 248.768 338.599C230.737 341.004 214.198 328.265 211.92 310.218C209.643 292.171 222.498 275.721 240.56 273.571Z"/><path fill="#8B4513" d="M240.091 279.795C254.573 277.372 268.27 287.171 270.652 301.66C273.035 316.149 263.197 329.818 248.701 332.159C234.264 334.491 220.661 324.701 218.288 310.27C215.915 295.839 225.667 282.209 240.091 279.795Z"/><path fill="#642505" d="M378.7 298.983C396.969 296.602 413.71 309.477 416.096 327.745C418.483 346.012 405.612 362.757 387.345 365.149C369.071 367.542 352.318 354.665 349.93 336.39C347.542 318.115 360.425 301.365 378.7 298.983Z"/><path fill="#8B4513" d="M383.235 302.33C399.643 302.216 413.046 315.409 413.19 331.817C413.335 348.225 400.166 361.652 383.758 361.826C367.308 362.001 353.839 348.791 353.694 332.34C353.549 315.89 366.784 302.445 383.235 302.33Z"/><path fill="#8B4513" d="M380.151 307.856C393.504 305.872 405.962 315.019 408.068 328.354C410.174 341.689 401.141 354.229 387.826 356.457C374.338 358.713 361.599 349.537 359.466 336.029C357.333 322.522 366.624 309.867 380.151 307.856Z"/><path fill="#D4AF37" d="M435.89 105.168L437.28 105.021C440.198 106.53 465.847 160.322 469.218 167.168C487.232 203.383 505.006 239.716 522.538 276.166C536.217 303.793 549.725 331.505 563.06 359.301C569.396 372.409 577.39 387.314 582.775 400.613C573.514 392.728 554.553 380.548 543.907 373.296C521.105 357.926 498.565 342.173 476.297 326.041L387.436 264.257C371.362 253.075 355.617 241.609 339.215 230.811C343.461 229.957 351.454 230.482 353.464 229.24C350.121 226.462 339.055 227.052 334.821 227.708C314.889 212.886 291.262 196.95 270.701 182.815C318.959 140.462 373.488 117.391 435.89 105.168Z"/><path fill="#642505" d="M394.094 132.609C413.826 129.398 432.431 142.771 435.676 162.497C438.922 182.223 425.582 200.852 405.862 204.132C386.092 207.421 367.406 194.04 364.153 174.265C360.899 154.489 374.313 135.827 394.094 132.609Z"/><path fill="#8B4513" d="M397.257 135.787C415.111 133.866 431.147 146.769 433.091 164.62C435.035 182.471 422.152 198.523 404.303 200.489C386.423 202.459 370.337 189.548 368.389 171.665C366.442 153.783 379.372 137.713 397.257 135.787Z"/><path fill="#8B4513" d="M398.666 141.999C412.865 140.312 425.77 150.384 427.583 164.567C429.397 178.749 419.442 191.744 405.276 193.685C390.929 195.65 377.733 185.54 375.896 171.177C374.059 156.813 384.287 143.707 398.666 141.999Z"/><path fill="#642505" d="M468.786 228.426C486.553 225.937 502.951 238.383 505.334 256.164C507.716 273.945 495.172 290.269 477.377 292.544C459.732 294.801 443.577 282.386 441.214 264.755C438.852 247.124 451.17 230.894 468.786 228.426Z"/><path fill="#8B4513" d="M469.258 231.837C485.081 229.407 499.902 240.195 502.453 255.999C505.004 271.804 494.33 286.707 478.546 289.379C462.589 292.08 447.488 281.264 444.91 265.288C442.331 249.311 453.262 234.293 469.258 231.837Z"/><path fill="#8B4513" d="M473.153 236.956C486.604 236.547 497.85 247.1 498.295 260.55C498.74 274 488.217 285.274 474.768 285.755C461.268 286.239 449.942 275.667 449.495 262.165C449.048 248.664 459.651 237.366 473.153 236.956Z"/><path fill="#8B4513" d="M309.282 175.299C310.07 175.73 315.495 183.688 316.774 185.194C342.291 215.225 390.819 230.443 428.212 215.989C432.123 214.478 436.182 211.746 439.921 209.729L440.219 209.976L438.677 211.493C406.26 238.738 345.622 224.277 319.169 195.015C315.072 190.482 308.904 181.634 309.282 175.299Z"/><path fill="#8B4513" d="M406.824 49.1316C408.177 48.934 407.766 48.9723 409.153 49.1535C412.138 51.744 420.42 69.4369 422.829 74.2912C384.235 82.304 352.902 91.2015 317.955 110.06C304.98 117.062 292.973 123.553 280.865 132.268C274.622 136.781 268.449 141.39 262.349 146.095C259.667 148.196 243.351 162.182 241.93 162.71L240.453 161.592C235.703 158.301 224.013 151.142 221.649 146.365C221.117 140.053 239.893 126.874 245.327 122.639C292.342 85.305 347.793 60.0661 406.824 49.1316Z"/><path fill="#8B4513" d="M215.459 151.935C219.434 152.062 234.422 163.195 238.642 166.113C230.448 174.215 221.708 181.907 213.999 190.659C186.453 221.934 163.961 258.089 147.615 296.407C141.844 309.936 136.869 324.422 131.867 338.17C130.3 338.822 128.83 338.371 127.086 338.116C119.373 337.388 110.903 336.186 103.148 335.254C104.155 331.815 105.205 328.389 106.297 324.976C123.577 270.918 151.432 220.835 188.241 177.638C195.094 169.605 206.313 156.608 215.459 151.935Z"/><path fill="#8B4513" d="M242.008 168.91C246.288 171.202 258.187 180.054 262.266 183.208C212.563 228.705 183.468 279.316 162.961 343.055C161.622 342.96 159.408 342.562 158.007 342.359C151.098 341.402 143.64 340.496 136.819 339.285C161.861 268.592 186.899 221.521 242.008 168.91Z"/><path fill="#8B4513" d="M422.515 79.1638C423.075 79.0635 423.83 79.1257 424.431 79.137C426.897 81.2697 433.924 95.9548 435.896 99.8532C424.373 102.739 413.7 104.531 401.82 107.889C351.701 122.059 305.527 145.108 266.82 180.236L261.87 176.973C256.673 173.145 250.859 169.756 245.903 165.84C295.613 121.153 356.755 91.1466 422.515 79.1638Z"/><path fill="#2F4F4F" d="M791.594 95.2069C803.216 93.8617 821.066 96.0673 831.98 99.7285C855.154 107.503 870.888 120.798 881.976 142.288C885.491 142.951 888.901 143.64 892.266 144.645C929.28 155.692 948.874 205.321 916.038 232.462C898.167 247.232 874.496 251.783 852.168 250.132C850.714 265.228 847.834 281.634 846.156 297.194C844.505 312.37 842.756 327.534 840.911 342.687C839.429 355.128 838.037 366.506 835.39 378.756C829.196 407.423 805.308 423.127 779.24 432.338C763.708 437.825 748.304 442.047 732.104 444.745C730.027 443.189 727.7 441.109 725.69 439.406C714.804 429.181 704.556 418.598 695.476 406.953C671.568 376.291 659.118 356.182 675.093 317.731C676.798 313.625 685.369 295.998 686.155 293.234C689.861 280.203 691.976 261.804 693.622 248.151C678.443 251.508 667.24 253.155 651.761 250.134C622.488 244.421 603.059 221.828 609.573 191.298C613.482 173.352 624.437 157.728 639.977 147.937C657.621 136.583 674.56 134.634 694.738 139.047C699.796 134.837 703.379 131.051 709.025 126.737C732.849 108.337 761.569 97.3701 791.594 95.2069Z"/><path fill="white" d="M798.002 106.23C831.632 106.311 862.319 119.975 874.989 153.049C881.242 152.981 886.462 153.887 892.239 156.314C904.513 161.362 914.232 171.147 919.196 183.456C922.421 191.662 923.278 202.089 919.353 210.121C906.073 237.301 869.24 241.512 842.849 235.803C829.657 232.949 818.251 227.717 806.29 222.177C837.742 216.022 856.787 204.561 878.448 181.101C870.114 186.643 861.963 192.194 853.035 196.76C825.342 210.653 794.378 216.716 763.49 214.294C739.953 212.349 717.012 205.887 695.921 195.26C689.027 191.808 682.582 187.782 675.738 184.22C691.139 200.474 708.858 208.905 729.404 216.446C706.811 231.985 681.73 242.855 653.527 238.294C605.384 230.508 612.92 178.508 646.207 156.732C662.503 146.071 677.946 144.61 696.86 148.626C725.042 123.427 759.914 107.412 798.002 106.23Z"/><path fill="white" d="M747.31 283.718C749.454 283.651 751.599 283.628 753.743 283.651C778.897 284.098 799.336 291.472 820.546 304.537C825.258 307.439 831.407 311.422 835.145 315.338C834.21 331.177 828.938 359.423 822.216 373.457C811.058 396.754 791.709 409.976 768.374 418.728C757.925 422.152 747.34 425.144 736.644 427.695C715.456 409.223 690.897 380.954 687.993 352.136C686.311 335.447 689.386 309.501 696.371 294.221C709.603 288.096 732.855 284.516 747.31 283.718Z"/><path fill="#2F4F4F" d="M706.009 347.076C706.241 350.114 701.767 357.857 708.364 361.208C715.745 364.958 726.635 357.173 733.763 355.346C744.749 352.529 748.404 357.082 751.191 366.849C752.788 364.939 754.593 363.042 756.738 361.758C759.678 360.007 763.209 359.547 766.498 360.486C775.585 363.081 772.89 372.712 776.363 378.9C780.225 385.781 790.037 379.292 794.379 376.122C794.621 374.037 794.696 371.561 794.818 369.434C801.908 373.206 803.905 376.494 800.302 384.21C796.86 389.137 792.09 392.984 786.546 395.303C779.072 398.475 771.561 398.18 764.149 395.15C755.249 391.512 751.992 386.354 748.46 377.978C731.026 394.817 705.823 383.769 697.996 363.226C694.871 355.024 697.641 349.342 706.009 347.076Z"/><path fill="#101111" d="M794.06 303.522C806.432 303.036 815.936 312.452 818.609 324.056C819.839 329.396 818.851 333.719 817.903 338.975C817.35 337.339 816.869 334.846 816.476 333.1C811.645 317.752 801.654 310.395 785.726 309.768C788.676 306.543 790.218 305.351 794.06 303.522Z"/><path fill="#101111" d="M733.519 311.873C744.357 313.325 742.023 333.647 734.512 339.525L732.237 339.557C724.287 336.158 726.176 316.818 733.519 311.873Z"/><path fill="#101111" d="M794.619 325.944C803.599 328.07 800.344 348.091 791.231 352.159C782.358 349.151 785.409 330.094 794.619 325.944Z"/><path fill="#101111" d="M733.476 291.547C744.746 290.935 748.027 296.37 750.207 306.388C743.689 299.815 738.4 298.48 729.556 300.868C723.834 303.209 719.96 307.346 715.625 311.573C718.326 300.343 721.867 294.881 733.476 291.547Z"/><path fill="white" d="M738.477 218.903C761.609 224.792 772.746 226.369 796.572 226.47C813.55 240.363 822.918 242.087 842.096 248.519C842.077 256.31 836.566 292.999 834.096 300.23C826.129 295.867 821.117 291.583 811.776 286.96C785.908 275.012 753.572 270.701 725.313 274.948C717.055 276.189 709.485 278.539 701.56 281.019C700.516 268.258 702.062 256.24 703.773 243.657C717.8 234.822 725.829 229.679 738.477 218.903Z"/><path fill="#8B4513" d="M238.371 703.714C265.161 701.39 297.764 709.269 321.041 722.306C355.262 741.615 380.561 773.557 391.519 811.292C396.121 827.706 400.71 861.205 392.766 877.521C386.888 889.594 362.09 893.949 350.004 897.453C335.355 901.7 319.359 906.056 304.209 909.993C262.293 920.863 220.432 931.943 178.627 943.233C155.987 949.412 133.287 955.368 110.531 961.102C100.287 963.719 89.7294 966.877 79.3417 968.577C61.0873 971.564 44.7623 954.928 44.9397 937.045C46.0387 826.214 120.105 711.618 238.371 703.714Z"/><path fill="#642505" d="M181.936 728.12C185.134 727.6 189.246 725.573 192.362 724.409C235.315 708.359 280.974 711.15 320.525 734.951C320.979 735.856 320.935 735.478 320.954 736.008C323.033 736.408 324.592 736.577 325.841 738.416C323.597 741.537 319.418 747.458 317.744 750.876C316.06 752.479 316.041 752.778 315.087 754.977C312.134 759.3 309.238 763.662 306.399 768.062C305.176 769.348 304.924 769.715 303.133 770.234C303.205 770.813 303.473 772.588 303.406 773.048C305.902 775.192 308.361 777.372 310.834 779.542C339.68 804.855 348.118 849.775 335.281 885.166C285.253 899.467 233.63 912.013 183.228 925.404L123.737 941.542C115.361 943.808 104.62 947.2 96.3787 948.876C94.6093 942.723 94.2057 935.972 94.0095 929.596C93.1903 902.966 100.788 879.023 110.22 854.513C109.428 854.295 106.314 852.896 105.276 852.476C103.432 851.593 95.9638 849.454 93.2597 848.532L92.6242 848.167L94.5471 847.705C90.4336 846.94 92.9352 845.659 89.8731 845.614L90.7427 847.083L89.9391 847.37C85.9324 846.667 79.5671 844.552 75.4862 843.326C75.9937 841.773 76.6121 840.781 77.3692 839.335C79.9346 831.209 86.7552 819.682 91.0619 812.203C110.88 777.783 141.391 746.948 177.82 730.461C178.751 729.118 180.411 728.701 181.936 728.12Z"/><path fill="#D4AF37" d="M303.406 773.048C305.902 775.192 308.361 777.372 310.834 779.542C339.68 804.855 348.118 849.775 335.281 885.166C285.253 899.467 233.63 912.013 183.228 925.404L123.737 941.542C115.361 943.808 104.62 947.2 96.3787 948.876C94.6093 942.723 94.2057 935.972 94.0095 929.596C93.1903 902.966 100.788 879.023 110.22 854.513C112.946 855.01 119.965 857.453 122.846 858.384L147.433 866.352C173.257 874.55 199.011 882.97 224.69 891.612C227 888.84 230.2 883.663 232.274 880.544L245.395 860.888L277.78 811.684C285.645 799.554 294.981 784.588 303.406 773.048Z"/><path fill="#642505" d="M301.172 812.035C313.397 811.322 323.918 820.583 324.763 832.8C325.608 845.017 316.462 855.638 304.255 856.615C296.24 857.257 288.498 853.543 283.983 846.889C279.467 840.236 278.875 831.67 282.431 824.459C285.988 817.247 293.145 812.503 301.172 812.035Z"/><path fill="#8B4513" d="M301.147 814.56C312.071 813.755 321.591 821.933 322.443 832.855C323.295 843.776 315.158 853.331 304.241 854.23C293.256 855.135 283.629 846.938 282.772 835.949C281.915 824.96 290.154 815.369 301.147 814.56Z"/><path fill="#8B4513" d="M305.337 823.712C309.55 823.649 317.046 827.596 315.576 832.138C310.477 829.923 300.749 819.268 299.616 833.384C299.583 836.877 300.692 837.809 302.734 840.512C302.22 842.272 302.728 841.655 301.333 842.559C293.746 841.784 289.381 825.282 305.337 823.712Z"/><path fill="#642505" d="M120.103 886.352C131.924 884.299 143.182 892.184 145.293 903.994C147.404 915.805 139.575 927.102 127.775 929.271C115.893 931.455 104.5 923.559 102.374 911.666C100.248 899.773 108.2 888.419 120.103 886.352Z"/><path fill="#8B4513" d="M122.423 888.54C133.12 887.723 142.446 895.751 143.23 906.451C144.013 917.151 135.956 926.451 125.254 927.202C114.599 927.948 105.348 919.934 104.568 909.282C103.788 898.629 111.773 889.353 122.423 888.54Z"/><path fill="#642505" d="M166.053 884.217C175.651 882.03 185.218 887.993 187.479 897.574C189.741 907.155 183.851 916.767 174.288 919.102C164.62 921.463 154.88 915.495 152.593 905.809C150.307 896.123 156.35 886.429 166.053 884.217Z"/><path fill="#D4AF37" d="M167.207 886.722C175.309 885.165 183.17 890.37 184.901 898.437C186.632 906.505 181.597 914.476 173.569 916.38C168.22 917.648 162.603 915.924 158.887 911.872C155.172 907.82 153.94 902.074 155.666 896.855C157.393 891.636 161.808 887.759 167.207 886.722Z"/><path fill="#642505" d="M273.615 860.182C290.027 858.916 302.056 867.972 309.512 881.958C303.598 876.446 299.116 872.861 291.868 869.386C275.212 863.052 264.808 865.489 248.733 871.415C256.784 865.499 263.687 861.333 273.615 860.182Z"/><path fill="#D4AF37" d="M181.936 728.12C185.134 727.6 189.246 725.573 192.362 724.409C235.315 708.359 280.974 711.15 320.525 734.951C320.979 735.856 320.935 735.478 320.954 736.008C320.605 736.571 318.996 739.09 318.824 739.538C317.204 743.721 313.886 748.885 310.604 751.93L303.214 764.574C301.903 766.78 301.099 768.379 299.315 770.248C291.033 781.141 279.586 800.003 271.829 811.942C256.344 835.959 240.562 859.784 224.487 883.41C219.574 863.224 212.376 841.841 206.593 821.759C201.644 804.574 197.063 785.322 191.543 768.474C191.541 767.034 190.658 763.872 190.24 762.48C188.834 757.777 187.721 753.123 186.213 748.393C186.073 746.112 185.944 745.837 185.206 743.629C183.803 738.189 182.939 733.622 181.936 728.12Z"/><path fill="#8B4513" d="M181.936 728.12C185.134 727.6 189.246 725.573 192.362 724.409C235.315 708.359 280.974 711.15 320.525 734.951C320.979 735.856 320.935 735.478 320.954 736.008C320.605 736.571 318.996 739.09 318.824 739.538C317.204 743.721 313.886 748.885 310.604 751.93L303.214 764.574C301.903 766.78 301.099 768.379 299.315 770.248C270.08 750.415 222.064 752.23 191.543 768.474C191.541 767.034 190.658 763.872 190.24 762.48C188.834 757.777 187.721 753.123 186.213 748.393C186.073 746.112 185.944 745.837 185.206 743.629C183.803 738.189 182.939 733.622 181.936 728.12Z"/><path fill="#8B4513" d="M186.213 748.393C215.2 733.99 257.448 731.86 288.179 742.219C297.912 745.5 302.493 748.683 310.604 751.93L303.214 764.574C301.903 766.78 301.099 768.379 299.315 770.248C270.08 750.415 222.064 752.23 191.543 768.474C191.541 767.034 190.658 763.872 190.24 762.48C188.834 757.777 187.721 753.123 186.213 748.393Z"/><path fill="#8B4513" d="M190.24 762.48C223.312 747.928 253.847 744.264 288.5 757.532C291.6 758.719 300.736 762.682 303.214 764.574C301.903 766.78 301.099 768.379 299.315 770.248C270.08 750.415 222.064 752.23 191.543 768.474C191.541 767.034 190.658 763.872 190.24 762.48Z"/><path fill="#8B4513" d="M185.206 743.629C189.597 741.954 194.259 739.875 198.714 738.493C238.933 726.017 275.738 729.13 313.436 747.702C315.191 744.954 316.987 742.232 318.824 739.538C317.204 743.721 313.886 748.885 310.604 751.93C302.493 748.683 297.912 745.5 288.179 742.219C257.448 731.86 215.2 733.99 186.213 748.393C186.073 746.112 185.944 745.837 185.206 743.629Z"/><path fill="#642505" d="M238.112 765.195C250.798 764.761 261.473 774.61 262.059 787.29C262.645 799.969 252.923 810.762 240.252 811.499C231.919 811.983 223.969 807.95 219.439 800.94C214.908 793.93 214.497 785.025 218.362 777.627C222.227 770.229 229.771 765.481 238.112 765.195Z"/><path fill="#8B4513" d="M234.719 768.046C242.15 766.448 249.865 768.986 254.895 774.685C259.925 780.384 261.486 788.354 258.977 795.529C256.468 802.704 250.281 807.965 242.795 809.288C231.515 811.281 220.716 803.873 218.514 792.632C216.313 781.39 223.519 770.456 234.719 768.046Z"/><path fill="#8B4513" d="M239.241 772.209C243.282 771.936 246.312 772.644 249.433 775.355C255.94 781.005 257.561 793.914 251.459 800.385C247.866 804.196 243.281 804.744 238.368 804.923C230.6 803.621 224.001 800.028 222.481 791.58C221.75 787.366 222.771 783.036 225.307 779.591C229.065 774.397 233.433 773.193 239.241 772.209Z"/><path fill="#8B4513" d="M238.602 777.585C242.079 777.464 247.81 779.199 248.709 782.863L248.282 783.22C245.46 783.754 242.477 782.121 239.772 780.999L234.597 783.778C233.837 785.119 233.089 787.026 232.465 788.491C233.332 791.639 233.769 796.202 237.411 796.559C239.661 795.546 242.04 792.094 243.664 790.004C244.469 788.868 244.42 788.958 245.753 788.51C248.248 789.16 249.788 791.031 248.545 793.396C245.991 798.253 237.732 800.209 233.261 797.118C229.543 794.547 229.119 791.413 228.375 787.486C231.501 781.541 232.32 780.043 238.602 777.585Z"/><path fill="#642505" d="M261.86 804.927C262.601 812.273 248.869 822.015 241.591 821.267C234.1 820.498 231.545 820.019 226.118 814.937C225.751 814.427 225.542 813.932 225.254 813.365C241.253 823.987 251.393 818.523 261.86 804.927Z"/><path fill="#8B4513" d="M77.3692 839.335C79.9346 831.209 86.7552 819.682 91.0619 812.203C110.88 777.783 141.391 746.948 177.82 730.461C178.94 735.668 179.922 740.193 181.388 745.329C136.352 768.422 112.444 798.251 91.5866 843.803C87.0224 842.285 81.7395 840.862 77.3692 839.335Z"/><path fill="#D4AF37" d="M95.2573 844.97C98.3798 837.447 103.989 828.253 108.07 821.127C128.38 785.663 147.6 769.011 182.412 749.373C183.626 754.327 184.921 759.262 186.294 764.175C186.97 766.643 187.056 767.952 187.318 770.464C197.484 808.661 210.53 847.536 220.005 885.18C190.914 875.278 161.553 866.091 132.366 856.468C125.767 854.292 119.048 852.081 112.404 850.06C111.169 849.308 108.494 849.029 106.962 848.77C103.053 847.327 99.2345 846.184 95.2573 844.97Z"/><path fill="#8B4513" d="M95.2573 844.97C98.3798 837.447 103.989 828.253 108.07 821.127C128.38 785.663 147.6 769.011 182.412 749.373C183.626 754.327 184.921 759.262 186.294 764.175C186.97 766.643 187.056 767.952 187.318 770.464C157.421 782.34 125.252 820.644 112.404 850.06C111.169 849.308 108.494 849.029 106.962 848.77C103.053 847.327 99.2345 846.184 95.2573 844.97Z"/><path fill="#8B4513" d="M186.294 764.175C186.97 766.643 187.056 767.952 187.318 770.464C157.421 782.34 125.252 820.644 112.404 850.06C111.169 849.308 108.494 849.029 106.962 848.77C121.979 819.922 138.746 795.685 166.062 776.952C167.796 775.762 185.948 764.668 186.294 764.175Z"/><path fill="#642505" d="M159.17 804.646C171.097 802.697 182.346 810.781 184.303 822.706C186.259 834.631 178.183 845.885 166.259 847.85C154.325 849.815 143.058 841.73 141.1 829.795C139.141 817.859 147.234 806.597 159.17 804.646Z"/><path fill="#8B4513" d="M161.383 806.766C172.032 806.033 181.273 814.041 182.063 824.686C182.852 835.331 174.893 844.615 164.252 845.46C153.531 846.312 144.163 838.281 143.368 827.556C142.573 816.83 150.653 807.505 161.383 806.766Z"/><path fill="#8B4513" d="M160.322 820.035C165.46 819.899 171.138 822.864 168.519 828.6L167.326 828.16C166.148 826.145 165.793 825.649 163.923 824.257C160.779 824.544 159.985 827.418 158.667 829.958L158.178 829.593C156.906 824.73 156.571 823.504 160.322 820.035Z"/><path fill="#8B4513" d="M325.841 738.416C357.473 761.802 377.378 791.389 383.229 830.934C384.576 840.038 386.431 861.587 380.747 869.746C377.783 873.999 370.571 875.893 365.638 877.168C375.331 826.462 359.084 781.838 317.744 750.876C319.418 747.458 323.597 741.537 325.841 738.416Z"/><path fill="#8B4513" d="M315.087 754.977C354.661 783.442 371.024 831.349 360.727 878.449C354.549 880.118 348.542 881.668 342.25 882.882C344.175 875.821 346.311 868.354 346.962 861.095C349.802 829.453 338.541 794.475 314.112 773.355C312.201 771.702 308.706 768.917 306.399 768.062C309.238 763.662 312.134 759.3 315.087 754.977Z"/><path fill="#8B4513" d="M75.4862 843.326C79.5671 844.552 85.9324 846.667 89.9391 847.37C88.3612 849.8 84.8216 860.351 83.7975 863.345C73.7634 892.675 68.5498 925.24 72.094 956.177C55.3816 949.521 55.7268 938.507 56.7066 922.986C58.6058 895.59 64.9485 868.686 75.4862 843.326Z"/><path fill="#8B4513" d="M93.2597 848.532C95.9638 849.454 103.432 851.593 105.276 852.476C96.0792 870.716 88.8228 906.02 88.7447 926.397C88.7117 935.017 89.7617 942.73 91.3289 951.12C86.5096 952.44 81.419 953.608 76.5491 954.801C72.698 928.151 78.1572 897.413 85.61 871.695C87.6835 864.539 91.4578 855.713 93.1613 848.939L93.2597 848.532Z"/><path fill="#2F4F4F" d="M71.525 598.248L946.711 598.208C944.428 608.474 942.759 618.993 940.212 629.21C935.245 648.925 928.804 668.205 921.757 687.263C920.759 689.964 919.332 695.937 916.502 696.444L915.025 696.944C913.454 696.493 911.874 696.072 910.286 695.682C903.489 693.506 894.589 693.366 888.556 697.618C887.115 698.68 883.229 701.772 882.001 702.487L881.837 701.862C880.55 701.52 880.919 701.649 879.758 700.997C879.349 698.273 889.131 679.413 891.12 674.545C899.255 654.385 905.862 633.641 910.884 612.489C835.463 611.764 758.515 613.072 682.951 613.462L385.828 613.97L221.72 613.698L149.54 613.991C137.785 614.011 125.213 613.741 113.453 614.194C111.798 614.258 104.574 616.102 102.166 616.59C93.803 618.283 85.1233 619.754 76.865 621.803C74.5874 614.073 72.8038 606.205 71.525 598.248Z"/><path fill="#F1A51C" d="M881.837 701.862C890.358 690.335 904.795 690.894 916.502 696.444L915.025 696.944C913.454 696.493 911.874 696.072 910.286 695.682C903.489 693.506 894.589 693.366 888.556 697.618C887.115 698.68 883.229 701.772 882.001 702.487L881.837 701.862Z"/><path fill="#2F4F4F" d="M870.54 718.36C866.528 702.164 842.695 694.205 843.324 685.296C844.602 682.871 849.21 681.499 851.502 682.429C859.175 685.545 866.398 691.715 872.745 696.971C875.406 699.175 877.807 702.105 880.935 703.528L882.001 702.487C883.229 701.772 887.115 698.68 888.556 697.618C894.589 693.366 903.489 693.506 910.286 695.682C911.874 696.072 913.454 696.493 915.025 696.944C923.978 701.623 930.433 707.247 933.549 717.262C935.814 724.366 935.149 732.081 931.702 738.693C928.462 744.894 922.76 749.443 915.995 751.226C911.375 752.489 898.414 752.85 896.884 746.998C895.38 746.827 894.542 746.414 893.15 745.873C889.121 751.111 884.757 760.111 880.863 766.009C873.598 777.012 866.106 787.927 858.009 798.333C789.686 885.725 689.503 942.464 579.417 956.115C587.484 946.466 592.216 934.281 595.368 922.237C618.797 917.425 637.68 913.091 660.208 904.74C733.627 877.526 802.391 826.062 846.385 761.04C856.323 746.351 862.987 735.709 870.402 719.538L870.54 718.36Z"/><path fill="white" d="M914.619 701.109C913.531 698.079 908.068 696.566 905.184 695.552C907.86 694.936 907.691 696.68 910.286 695.682C911.874 696.072 913.454 696.493 915.025 696.944C923.978 701.623 930.433 707.247 933.549 717.262C935.814 724.366 935.149 732.081 931.702 738.693C928.462 744.894 922.76 749.443 915.995 751.226C911.375 752.489 898.414 752.85 896.884 746.998C896.379 744.374 895.982 744.031 894.48 741.712C895.636 742.386 897.472 743.744 898.549 743.646L898.04 743.105L900.18 741.75C900.19 741.6 900.2 741.451 900.21 741.301C899.046 738.37 900.474 736.17 901.905 733.207C902.336 730.809 902.972 730.178 904.575 728.443C904.781 725.941 906.062 722.825 906.914 720.375L907.704 720.528L907.384 718.666C908.784 718.84 910.157 719.299 911.358 719.43L909.769 717.2C911.077 712.407 913.445 707.852 916.398 703.872C916.065 702.884 915.269 701.997 914.619 701.109Z"/><path fill="#8B4513" d="M914.619 701.109C913.531 698.079 908.068 696.566 905.184 695.552C907.86 694.936 907.691 696.68 910.286 695.682C911.874 696.072 913.454 696.493 915.025 696.944C923.978 701.623 930.433 707.247 933.549 717.262C935.814 724.366 935.149 732.081 931.702 738.693C928.462 744.894 922.76 749.443 915.995 751.226C911.375 752.489 898.414 752.85 896.884 746.998C896.379 744.374 895.982 744.031 894.48 741.712C895.636 742.386 897.472 743.744 898.549 743.646L898.04 743.105L900.18 741.75C906.419 755.295 949.967 736.031 916.398 703.872C916.065 702.884 915.269 701.997 914.619 701.109Z"/><path fill="#8B4513" d="M907.384 718.666C908.784 718.84 910.157 719.299 911.358 719.43C913.779 722.811 916.068 726.439 915.482 730.787C914.979 734.522 911.94 737.241 908.074 736.436C905.75 735.975 903.608 734.854 901.905 733.207C902.336 730.809 902.972 730.178 904.575 728.443C904.781 725.941 906.062 722.825 906.914 720.375L907.704 720.528L907.384 718.666Z"/><path fill="white" d="M906.914 720.375L907.704 720.528C909.965 724.304 911.105 725.574 911.164 730.012L910.566 731.158C907.888 731.639 906.538 730.111 904.575 728.443C904.781 725.941 906.062 722.825 906.914 720.375Z"/><defs><linearGradient id="gradient_0" gradientUnits="userSpaceOnUse" x1="843.01196" y1="699.36469" x2="882.90094" y2="702.31366"><stop offset="0" stop-color="#8B5200"/><stop offset="1" stop-color="#6C4A15"/></linearGradient></defs><path fill="url(#gradient_0)" d="M870.54 718.36C866.528 702.164 842.695 694.205 843.324 685.296C844.602 682.871 849.21 681.499 851.502 682.429C859.175 685.545 866.398 691.715 872.745 696.971C875.406 699.175 877.807 702.105 880.935 703.528L880.743 704.126C878.749 710.561 884.078 710.165 882.555 715.384C880.834 716.959 879.061 717.243 876.727 717.748L879.739 718.383L879.542 718.741C876.881 718.854 872.856 719.272 870.54 718.36Z"/><path fill="white" d="M848.256 685.91C854.9 686.971 873.243 703.298 877.069 709.819C877.639 710.789 876.302 713.412 875.887 714.411C875.457 715.052 875.751 714.758 874.923 715.203C872.204 710.694 873.669 710.529 868.731 704.734C863.816 698.966 851.3 690.944 848.256 685.91Z"/><path fill="#5C4016" d="M893.15 745.873C886.554 737.409 886.921 728.206 892.514 719.057C894.595 716.008 897.259 713.606 900.906 712.842C905.671 711.844 906.305 714.902 909.769 717.2L911.358 719.43C910.157 719.299 908.784 718.84 907.384 718.666L907.704 720.528L906.914 720.375C906.062 722.825 904.781 725.941 904.575 728.443C902.972 730.178 902.336 730.809 901.905 733.207C900.474 736.17 899.046 738.37 900.21 741.301C900.2 741.451 900.19 741.6 900.18 741.75L898.04 743.105L898.549 743.646C897.472 743.744 895.636 742.386 894.48 741.712C895.982 744.031 896.379 744.374 896.884 746.998C895.38 746.827 894.542 746.414 893.15 745.873Z"/><path fill="#2F4F4F" d="M900.5 715.586C903.347 717.071 904.942 717.716 906.914 720.375C906.062 722.825 904.781 725.941 904.575 728.443C902.972 730.178 902.336 730.809 901.905 733.207C900.474 736.17 899.046 738.37 900.21 741.301C900.2 741.451 900.19 741.6 900.18 741.75L898.04 743.105C897.265 742.582 897.077 742.429 896.395 741.789C894.548 733.921 895.941 723.832 899.279 716.482L900.5 715.586Z"/><path fill="white" d="M894.48 741.712C894.469 741.685 894.458 741.657 894.447 741.629C888.972 734.494 888.944 721.092 899.279 716.482C895.941 723.832 894.548 733.921 896.395 741.789C897.077 742.429 897.265 742.582 898.04 743.105L898.549 743.646C897.472 743.744 895.636 742.386 894.48 741.712Z"/><path fill="#F1A51C" d="M900.5 715.586C902.63 713.94 905.705 717.222 907.384 718.666L907.704 720.528L906.914 720.375C904.942 717.716 903.347 717.071 900.5 715.586Z"/><path fill="#5C4016" d="M888.556 697.618C886.976 700.998 886.758 701.088 886.97 704.695C886.123 708.337 886.341 711.7 885.848 715.385C882.818 718.544 881.002 719.996 876.31 720.067C874.327 720.104 872.346 719.926 870.402 719.538L870.54 718.36C872.856 719.272 876.881 718.854 879.542 718.741L879.739 718.383L876.727 717.748C879.061 717.243 880.834 716.959 882.555 715.384C884.078 710.165 878.749 710.561 880.743 704.126L880.935 703.528L882.001 702.487C883.229 701.772 887.115 698.68 888.556 697.618Z"/><path fill="#433221" d="M888.556 697.618C894.589 693.366 903.489 693.506 910.286 695.682C907.691 696.68 907.86 694.936 905.184 695.552C908.068 696.566 913.531 698.079 914.619 701.109C907.093 696.45 893.889 692.777 888.339 702.152C887.855 702.985 887.399 703.833 886.97 704.695C886.758 701.088 886.976 700.998 888.556 697.618Z"/><path fill="#8B4513" d="M569.032 625.21C591.572 623.692 609.275 629.866 628.136 641.637C641.333 634.376 659.351 631.467 674.236 634.2C685.839 636.894 692.891 643.16 699.812 652.664C710.049 666.72 705.124 690.514 684.255 686.595C677.566 685.339 673.208 676.377 675.729 670.095C676.271 668.744 676.949 668.141 678.392 667.663C685.674 666.81 682.383 677.023 687.835 680.157C688.516 680.242 689.297 680.356 689.923 679.977C698.166 674.989 697.652 666.365 693.594 658.793C689.273 650.769 681.873 644.848 673.096 642.392C661.029 638.901 646.298 641.628 635.403 647.6C637.134 649.209 638.843 650.842 640.53 652.498C656.447 668.235 667.063 691.803 648.168 710.182C636.486 721.247 617.694 719.302 607.243 707.721C594.047 693.098 597.455 670.68 609.589 656.597C612.335 653.41 615.247 650.856 618.39 648.06C582.898 629.648 544.946 630.95 513.438 656.647C519.468 659.898 522.506 662.546 527.662 667.03C536.429 675.534 543.343 685.677 544.344 697.999C546.117 725.044 524.274 746.133 498.24 748.425C465.511 751.306 447.949 719.092 461.83 691.218C467.163 680.509 472.499 674.565 480.373 665.593C461.547 657.696 428.926 656.839 410.461 666.615C394.259 675.192 374.788 689.737 370.208 708.7C368.916 714.047 370.747 719.517 369.484 723.178C367.914 724.796 368.836 724.21 366.513 724.827C365.129 724.372 364.531 723.923 363.924 722.478C358.158 708.851 364.861 694.385 372.513 682.969C401.276 640.057 455.31 635.348 500.615 650.387C521.974 635.612 542.881 626.932 569.032 625.21Z"/><path fill="white" d="M497.703 674.961C511.947 681.831 526.474 699.9 516.685 716.191C512.792 722.669 504.862 726.918 497.566 728.462C496.46 728.591 495.352 728.701 494.243 728.792C488.998 729.2 484.222 728.046 480.265 724.471C463.874 709.667 487.322 685.553 497.703 674.961Z"/><path fill="white" d="M626.35 653.866C627.098 654.007 627.239 653.946 627.849 654.292C643.937 663.411 658.693 689.43 639.704 703.486C636.845 705.603 633.303 706.767 629.859 707.791C613.606 709.205 605.543 693.971 608.077 679.726C610.148 668.085 617.152 660.507 626.35 653.866Z"/><path fill="#2F4F4F" d="M561.781 508.552C558.903 516.857 532.639 556.029 538.282 562.624C541.506 563.353 545.405 559.71 547.756 557.762C558.699 548.697 567.68 538.096 576.119 526.708C578.854 523.017 581.276 518.744 584.22 515.174C591.614 506.211 601.681 497.45 613.261 494.722C619.316 493.485 625.262 493.981 630.554 497.302C638.165 502.079 637.512 511.758 632.661 518.312C630.393 521.378 624.475 525.6 620.859 522.016C616.173 517.371 621.681 512.143 621.474 506.981C621.444 506.225 620.91 506.089 620.319 505.63C608.218 504.424 592.809 530.986 591.264 541.544C590.251 548.47 587.898 563.2 598.386 563.753C614.365 564.595 628.707 546.318 637.889 535.425C642.055 530.268 644.965 524.047 649.193 518.796C653.663 513.235 658.807 508.251 664.507 503.958C672.862 497.775 682.792 492.735 693.608 494.388C708.503 496.665 710.589 514.74 698.446 522.208C696.828 523.29 693.513 523.922 691.657 523.102C684.852 520.094 692.84 510.906 690.565 506.067L689.263 505.646C685.19 506.214 681.013 508.738 677.872 511.386C667.383 520.229 658.502 534.279 657.17 548.14C656.533 551.048 657.596 560.377 660.079 562.168C674.657 572.683 702.121 542.954 708.915 533.987C719.034 520.632 725.067 510.414 735.592 499.591C740.622 502.681 742.496 504.585 745.127 509.638C741.464 516.56 721.062 555.177 724.775 560.695C732.725 561.37 749.875 533.485 754.628 529.879L755.224 530.119C754.453 536.754 746.668 548.406 742.835 553.73C738.267 559.867 732.592 566.534 725.995 570.475C719.612 574.325 709.12 573.834 705.781 566.164C702.106 557.722 705.68 548.41 708.734 540.423C694.725 556.721 671.309 583.699 647.296 570.143C636.355 563.966 636.248 552.95 637.849 542.124C626.748 556.743 606.602 578.474 585.862 572.865C580.118 571.365 575.229 567.599 572.312 562.429C568.088 554.908 568.964 547.649 570.995 539.801C560.973 552.902 539.226 583.074 520.974 569.699C516.363 566.32 515.668 560.657 514.947 555.483C506.268 566.086 489.618 583.046 475.978 567.404C470.841 561.514 470.882 554.536 471.714 547.192C461.887 558.535 437.677 588.874 424.625 564.225C419.316 554.199 437.303 525.106 442.107 514.639C420.042 523.852 392.904 571.86 385.662 573.382C376.116 570.99 373.831 559.138 376.072 550.915C380.429 534.929 396.636 503.199 410.367 494.576C415.541 498.036 418.333 500.546 421.275 506.193C415.361 518.686 407.986 528.854 402.627 542.363C414.414 530.376 439.888 496.957 456.824 496.414C459.958 496.314 462.891 497.64 465.149 499.773C466.229 500.793 468.117 502.743 468.525 504.218C470.183 510.208 441.543 553.43 442.601 562.275C442.697 563.079 443.137 563.147 443.734 563.589C452.357 563.832 474.228 539.238 478.255 531.751C484.962 519.281 491.716 501.635 504.964 494.022C511.029 494.706 516.814 498.054 522.102 500.936C511.366 516.477 500.789 529.892 494.067 547.862C491.354 555.116 487.55 570.8 500.995 561.371C515.643 551.097 521.249 535.963 530.953 521.797C536.625 513.62 543.697 504.542 550.445 497.281C555.666 500.812 558.725 502.813 561.781 508.552Z"/><path fill="#2F4F4F" d="M857.497 267.654C862.71 271.151 875.934 290.128 879.905 295.94C917.002 350.312 940.701 412.694 949.062 477.982C953.435 511.636 953.252 549.59 948.703 583.298C948.392 585.604 948 591.491 946.669 593.012C946.158 593.595 945.714 593.341 944.698 593.315C935.516 591.247 925.747 589.728 916.429 587.736C916.631 586.498 916.818 585.258 916.991 584.016C928.72 504.534 914.839 423.383 877.361 352.318C870.249 339.096 861.5 324.355 852.398 312.382C854.258 297.491 855.958 282.581 857.497 267.654Z"/><path fill="#2F4F4F" d="M253.29 439.218C264.445 439.052 275.49 439.796 285.183 445.833C307.162 459.521 301.804 489.473 285.296 505.297C268.497 521.401 249.227 525.351 226.801 525.485C215.771 556.348 192.26 579.875 157.235 574.308C164.925 569.775 173.695 565.912 179.992 559.026C207.076 528.985 212.87 482.015 245.056 455.794C249.053 452.538 262.581 447.429 265.762 452.371C253.517 461.347 243.588 484.9 237.651 498.862C234.776 505.193 232.379 511.696 229.892 518.189C240.639 518.291 248.742 516.232 258.2 510.271C273.359 502.241 285.41 471.829 274.064 457.357C258.829 437.924 217.226 453.236 201.628 464.656C182.148 478.919 163.287 505.95 176.379 529.597C178.799 533.968 184.888 535.066 189.268 535.687C185.72 543.328 182.191 550.678 172.721 551.605C156.867 553.157 146.875 538.626 146.499 524.257C146.029 506.312 155.633 489.809 167.412 476.927C183.427 459.618 205.564 447.596 228.474 442.335C236.749 440.434 244.825 439.594 253.29 439.218Z"/><path fill="#2F4F4F" d="M97.7839 365.062C108.545 366.48 119.26 368.225 129.915 370.293C111.786 414.394 101.244 456.089 98.7009 504.001C97.9307 518.81 97.9287 533.65 98.695 548.46C98.9768 553.6 102.819 586.337 102.26 587.799L101.125 588.209C91.128 588.282 79.55 588.092 69.7243 588.797C68.2262 574.06 66.1431 558.363 65.5384 543.56C63.1629 485.408 73.7044 418.434 97.7839 365.062Z"/><path fill="#2F4F4F" d="M545.457 885.038C535.668 897.415 512.561 900.814 497.731 898.972C477.426 896.461 458.933 886.035 446.274 869.962C422.318 839.139 430.313 803.504 474.728 808.771C501.09 811.897 522.261 841.882 535.963 862.039C539.496 867.236 542.436 873.731 546.29 878.807C544.665 881.269 544.862 882.169 545.457 885.038Z"/><path fill="white" d="M464.88 836.617C482.151 847.437 501.021 857.173 518.536 867.753C524.122 871.127 537.005 877.227 541.251 880.452C528.638 877.967 491.85 854.755 480.237 847.428C476.663 845.173 467.759 839.059 464.449 837.552L464.88 836.617Z"/><path fill="#7A8889" d="M464.449 837.552C462.314 836.381 460.939 835.688 459.098 834.047L459.044 834.13L459.973 833.6C461.235 834.07 463.742 835.766 464.88 836.617L464.449 837.552Z"/><path fill="#2F4F4F" d="M503.77 73.228C573.57 71.1507 632.373 89.35 694.614 118.586C692.033 121.16 689.49 123.951 686.992 126.621C671.922 125.946 665.39 125.978 650.614 130.424L646.694 132.018C638.312 128.185 627.551 125.002 618.778 122.142C571.583 106.756 525.327 102.639 475.953 106.555C472.95 94.9887 468.078 86.38 462.308 76.1388C474.632 74.017 491.238 73.5648 503.77 73.228Z"/><path fill="#2F4F4F" d="M578.281 897.096C579.851 897.035 581.185 897.727 582.685 898.3L584.021 898.78C604.827 940.41 547.709 969.204 515.106 975.753C480.137 982.778 470.899 955.503 489.928 930.737C504.318 912.008 531.315 903.599 553.519 899.643C561.634 898.146 569.698 898.125 577.819 897.154L578.281 897.096Z"/><path fill="white" d="M582.685 898.3C581.231 901.774 575.327 907.461 572.499 910.139C555.28 926.582 535.382 939.969 513.662 949.721L513.248 948.731C531.779 939.29 546.792 927.394 562.968 914.471C566.719 911.474 579.301 900.026 582.685 898.3Z"/><path fill="#BEC6CA" d="M513.248 948.731L513.662 949.721C509.535 951.704 506.895 952.558 502.495 953.988C505.509 952.282 510.035 950.273 513.248 948.731Z"/><path fill="#2F4F4F" d="M574.73 889.717C573.628 888.187 565.605 882.584 563.41 880.567C548.825 867.161 540.713 848.757 541.441 828.885C541.712 813.18 552.875 789.381 571.046 788.218C577.014 787.836 584.825 794.766 588.817 799.17C601.57 813.435 608.252 832.116 607.439 851.234C606.55 868.269 600.356 881.91 588.351 894.078L588.068 893.97L587.134 893.715C584.395 893.427 576.883 891.239 574.73 889.717Z"/><path fill="white" d="M587.134 893.715C577.786 880.203 570.532 830.841 572.801 814.373C573.544 815.964 574.514 831.912 575.055 835.708C576.138 843.24 577.557 850.719 579.307 858.124C580.703 864.102 588.742 890.528 588.068 893.97L587.134 893.715Z"/><path fill="#2F4F4F" d="M329.102 494.655C339.621 494.285 344.758 499.494 348.058 508.893C340.511 508.115 335.655 508.352 329.289 512.934C317.611 521.34 303.237 539.445 301.188 554.029C300.803 556.767 300.774 560.308 302.761 562.503C303.609 563.44 304.714 563.924 305.98 563.854C320.713 563.037 348.552 508.311 358.891 497.294C362.507 502.011 365.063 507.994 367.058 513.559C364.818 520.292 342.539 559.008 346.655 562.251C350.855 561.684 362.387 548.029 365.632 544.052C372.322 535.93 386.128 515.689 392.239 510.127C384.073 528.357 371.007 544.862 358.56 560.211C352.869 567.228 342.71 575.889 333.418 571.577C325.652 567.974 325.27 561.626 325.502 554.387C319.695 562.809 311.245 570.878 300.928 572.832C290.264 574.851 282.588 569.918 281.465 558.938C279.893 543.56 288.105 527.223 297.276 515.48C305.42 505.053 315.687 496.248 329.102 494.655Z"/><path fill="#2F4F4F" d="M111.012 626.747C111.274 626.932 111.536 627.118 111.798 627.303C113.962 634.657 117.718 646.422 120.319 653.33C128.434 675.142 138.35 696.24 149.966 716.407C138.234 723.991 133.551 727.787 124.486 738.036L122.374 734.792C103.961 702.398 87.6686 665.685 78.7315 629.45C89.5083 628.761 100.27 627.86 111.012 626.747Z"/><path fill="#2F4F4F" d="M386.708 903.894C392.111 905.212 399.047 907.639 404.607 909.265C413.977 911.939 423.41 914.387 432.898 916.606C447.901 920.077 461.171 921.355 475.874 924.162C472.646 934.304 470.123 944.658 468.325 955.149C461.381 954.45 454.796 953.468 447.891 952.445C415.919 947.387 384.865 937.481 354.882 925.474C367.843 919.734 377.844 915.183 386.708 903.894Z"/><path fill="#2F4F4F" d="M835.55 494.603C847.33 493.974 854.097 496.703 857.86 508.36C856.522 513.038 851.276 521.362 846.163 522.07C840.586 520.061 836.836 497.277 824.125 506.601C818.536 511.146 827.249 517.834 830.242 520.466C838.543 527.747 853.361 535.096 850.412 548.478C846.357 566.876 827.256 575.066 810.114 572.517C799.793 570.498 786.763 562.127 788.756 550.099C789.24 546.992 790.987 544.223 793.583 542.45C798.115 539.375 802.738 539.367 807.799 540.259C806.884 548.542 807.591 555.119 814.561 560.648C818.768 563.986 826.686 564.583 829.203 559.159C836.601 543.516 809.937 534.734 807.476 521.765C804.854 507.948 824.699 497.234 835.55 494.603Z"/><path fill="#8B4513" d="M864.299 670.18C867.51 669.874 878.114 669.988 877.4 674.886C874.794 676.948 864.306 676.092 859.901 676.985C811.211 686.861 775.012 726.397 741.373 759.558C711.985 788.529 679.588 815 640.621 828.696C636.573 830.019 634.156 830.589 629.96 831.436L628.998 825.947C661.33 817.679 690.548 797.695 715.166 775.796C719.04 772.518 722.872 769.171 726.72 765.863C743.682 751.282 758.495 734.212 774.938 719.096C787.758 707.268 801.818 696.861 816.875 688.056C833.667 678.013 844.586 672.798 864.299 670.18Z"/><path fill="#8B4513" d="M300.282 928.705C305.531 928.171 311.927 928.444 316.881 928.165C325.477 927.681 327.011 936.416 321.625 937.466C316.79 938.408 307.432 937.869 302.068 938.055C292.989 938.415 283.937 939.283 274.954 940.654C232.42 947.185 194.576 961.087 155.831 979.327C151.723 981.323 140.742 988.574 137.13 985.838C136.55 981.754 140.369 979.871 143.581 978.222C147.743 976.084 151.815 973.905 155.933 971.687C200.472 947.322 249.669 932.673 300.282 928.705Z"/><path fill="#8B4513" d="M729.181 692.952C745.274 693.601 746.414 743.347 723.477 754.409C704.537 751.166 709.166 703.675 729.181 692.952Z"/><path fill="#FDFDAF" d="M730.066 698.377C739.428 707.703 736.792 740.172 722.86 745.132C711.313 735.596 718.143 706.026 730.066 698.377Z"/><path fill="#8B4513" d="M692.255 722.422C708.587 723.403 707.876 775.908 686.509 782.615C686.131 782.53 685.754 782.439 685.379 782.343C667.902 777.783 672.968 732.289 692.255 722.422Z"/><path fill="#FDFDAF" d="M692.018 728.2C700.686 730.096 700.753 768.573 687.34 774.157C674.154 765.242 681.68 737.338 692.018 728.2Z"/><path fill="#8B4513" d="M769.173 664.488C784.156 663.044 786.621 712.339 764.388 718.516C763.659 718.523 761.584 718.581 760.981 718.445C750.676 716.13 752.257 696.25 753.781 689.292C755.964 679.321 760.875 669.858 769.173 664.488Z"/><path fill="#FDFDAF" d="M770.108 670.326L771.192 670.63C779.333 677.514 775.961 707.814 764.153 713.118C752.018 705.515 760.071 678.566 770.108 670.326Z"/><path fill="#8B4513" d="M700.189 820.193C709.25 819.645 719.597 822.498 727.608 826.99C731.925 829.411 742.596 836.685 738.193 842.869C735.511 846.635 728.148 847.814 723.622 848.341C711.782 848.901 702.292 847.089 692.351 839.921C689.255 837.688 684.509 832.883 684.2 829.005C684.088 827.629 684.53 826.266 685.429 825.218C688.637 821.544 695.584 820.655 700.189 820.193Z"/><path fill="#FDFDAF" d="M696.481 825.597C697.489 825.502 698.5 825.442 699.512 825.416C706.651 825.199 732.873 830.538 732.6 839.068C730.97 841.526 728.583 841.764 725.777 842.388C718.854 843.279 714.169 843.131 707.262 841.312C702.009 839.929 692.78 835.475 690.108 830.762C689.783 826.622 693.167 826.446 696.481 825.597Z"/><path fill="#8B4513" d="M736.353 791.233C771.764 791.415 777.249 811.685 740.643 816.403C706.828 817.207 698.345 793.189 736.353 791.233Z"/><path fill="#FDFDAF" d="M735.222 796.197C741.066 795.64 755.379 796.551 758.593 802.103C758.654 808.238 745.854 809.727 741.189 810.471C736.218 810.636 715.407 810.651 717.539 802.363C721.064 798.191 729.968 796.736 735.222 796.197Z"/><path fill="#8B4513" d="M812.885 639.988C826.483 641.534 820.379 686.688 798.141 689.384C788.599 686.645 789.281 677.263 790.888 669.361C793.355 657.233 801.005 644.632 812.885 639.988Z"/><path fill="#FDFDAF" d="M811.938 645.764L813.177 646.121C818.084 651.502 812.697 682.415 799.354 682.629C795.524 678.48 795.418 673.912 796.559 668.527C798.509 659.219 804.03 651.046 811.938 645.764Z"/><path fill="#8B4513" d="M859.075 634.612C877.016 632.933 857.141 673.189 835.309 673.458C823.357 671.291 824.908 661.472 830.381 653.43C837.526 642.929 846.751 637.059 859.075 634.612Z"/><path fill="#FDFDAF" d="M859.218 639.603L860.316 640.168C862.32 646.373 851.779 660.563 846.67 664.065C842.725 666.769 840.945 667.908 836.274 667.3C825.728 655.95 848.668 641.284 859.218 639.603Z"/><path fill="#8B4513" d="M796.327 725.194C814.665 723.862 848.003 743.242 812.993 749.886C803.31 751.045 792.724 750.263 784.488 744.461C780.516 741.663 776.665 735.554 780.728 731.128C784.599 726.912 790.827 725.718 796.327 725.194Z"/><path fill="#FDFDAF" d="M795.821 730.17C801.538 730.087 821.761 733.599 821.32 740.756C819.587 743.363 816.708 743.709 813.696 744.533C807.068 745.563 799.154 746.158 792.9 743.037C782.825 738.01 785.406 731.79 795.821 730.17Z"/><path fill="#8B4513" d="M768.286 758.127C794.738 755.472 815.259 774.367 778.61 781.43C746.999 786.028 733.89 764.296 768.286 758.127Z"/><path fill="#FDFDAF" d="M770.249 763.169C775.721 762.471 788.652 763.567 791.516 768.968C791.413 774.805 780.192 776.205 775.624 776.82C769.983 777.529 757.172 777.576 754.449 771.588C754.684 765.19 765.192 763.863 770.249 763.169Z"/><path fill="#2F4F4F" d="M822.498 436.182C828.764 435.341 833.282 436.302 838.86 438.866C831.667 452.23 813.619 470.503 802.307 480.903C799.527 483.346 797.289 485.755 793.579 486.281C792.028 485.722 792.66 486.202 791.758 484.628C792.17 480.05 804.277 459.953 805.935 453.72C807.047 449.542 809.122 448.262 808.495 442.371C808.049 438.173 819.969 436.538 822.498 436.182Z"/><path fill="#8B4513" d="M823.74 697.592C843.911 696.788 869.665 717.303 840.059 721.751C832.646 722.549 824.287 721.291 817.59 717.866C813.078 715.674 807.321 709.114 810.886 703.958C813.643 699.971 819.257 698.475 823.74 697.592Z"/><path fill="#FDFDAF" d="M824.188 702.614C831.014 702.317 843.58 705.245 846.39 712.216C846.114 716.229 842.799 716.259 839.506 716.876C832.47 717.789 822.24 716.605 817.629 710.526C814.669 706.623 821.262 703.552 824.188 702.614Z"/><path fill="#2F4F4F" d="M765.057 444.171C775.358 443.525 780.172 447.242 784.027 456.714C778.851 462.106 763.863 474.774 757.745 479.314C754.79 481.395 748.961 486.545 745.788 483.669C745.088 480.323 761.93 453.517 763.787 446.88C764.127 445.664 764.128 445.115 765.057 444.171Z"/><path fill="#2F4F4F" d="M546.29 878.807C551.534 881.661 568.926 888.275 574.73 889.717C576.883 891.239 584.395 893.427 587.134 893.715L588.068 893.97L588.351 894.078C598.396 899.182 619.552 903.701 630.968 903.668C629.199 907.157 628.581 907.992 626.007 911.044C611.253 908.417 598.129 903.366 584.021 898.78L582.685 898.3C581.185 897.727 579.851 897.035 578.281 897.096C568.77 893.405 555.128 888.378 545.457 885.038C544.862 882.169 544.665 881.269 546.29 878.807Z"/></svg>